<svg width="194" height="41" viewBox="0 0 194 41" fill="none" xmlns="http://www.w3.org/2000/svg">
<path d="M56.7462 35.9432H55.7312L57.6912 29.5532H59.2462L61.2062 35.9432H60.1912L58.5312 30.2232H58.4062L56.7462 35.9432ZM59.9162 34.1582H57.0112V33.3282H59.9162V34.1582ZM69.8546 35.9432H68.8146L68.6446 34.6482C68.6146 34.4116 68.5613 34.2099 68.4846 34.0432C68.4113 33.8732 68.2963 33.7416 68.1396 33.6482C67.983 33.5549 67.7646 33.5082 67.4846 33.5082L65.8196 33.5032V32.7132L67.5896 32.7082C67.9996 32.7082 68.293 32.6099 68.4696 32.4132C68.6463 32.2166 68.7346 31.9432 68.7346 31.5932V31.4532C68.7346 31.1099 68.6446 30.8449 68.4646 30.6582C68.2846 30.4716 67.9863 30.3782 67.5696 30.3782H65.7996V29.5532H67.7096C68.4196 29.5532 68.9363 29.7049 69.2596 30.0082C69.5863 30.3116 69.7496 30.7349 69.7496 31.2782V31.4382C69.7496 31.8416 69.6563 32.1716 69.4696 32.4282C69.2863 32.6849 68.978 32.8466 68.5446 32.9132V33.0432L68.1246 32.8982C68.4946 32.9249 68.7796 33.0049 68.9796 33.1382C69.183 33.2716 69.3313 33.4549 69.4246 33.6882C69.518 33.9216 69.5896 34.2049 69.6396 34.5382L69.8546 35.9432ZM66.1196 35.9432H65.1296V29.5532H66.1146V32.9882L66.1196 33.3632V35.9432ZM76.2982 35.9432H75.2932V29.7282H76.2982V35.9432ZM78.1732 30.3932H73.4132V29.5532H78.1732V30.3932ZM83.2041 29.5532V35.9432H82.1991V29.5532H83.2041ZM89.4409 36.0632C89.1376 36.0632 88.8576 36.0399 88.6009 35.9932C88.3443 35.9466 88.1143 35.8882 87.9109 35.8182C87.7109 35.7482 87.5409 35.6782 87.4009 35.6082L87.3059 34.6232C87.5626 34.7699 87.8659 34.8999 88.2159 35.0132C88.5693 35.1266 88.9509 35.1832 89.3609 35.1832C89.8276 35.1832 90.1709 35.1066 90.3909 34.9532C90.6109 34.7966 90.7209 34.5616 90.7209 34.2482V34.1732C90.7209 33.9699 90.6759 33.8032 90.5859 33.6732C90.4993 33.5399 90.3509 33.4266 90.1409 33.3332C89.9309 33.2366 89.6459 33.1449 89.2859 33.0582C88.8126 32.9416 88.4293 32.8049 88.1359 32.6482C87.8459 32.4882 87.6343 32.2899 87.5009 32.0532C87.3676 31.8132 87.3009 31.5149 87.3009 31.1582V31.1082C87.3009 30.5716 87.4793 30.1582 87.8359 29.8682C88.1926 29.5782 88.7276 29.4332 89.4409 29.4332C89.8976 29.4332 90.2876 29.4782 90.6109 29.5682C90.9376 29.6549 91.2059 29.7532 91.4159 29.8632L91.5059 30.7782C91.2626 30.6382 90.9826 30.5216 90.6659 30.4282C90.3493 30.3316 89.9926 30.2832 89.5959 30.2832C89.2859 30.2832 89.0376 30.3182 88.8509 30.3882C88.6643 30.4549 88.5293 30.5532 88.4459 30.6832C88.3626 30.8099 88.3209 30.9632 88.3209 31.1432V31.1632C88.3209 31.3499 88.3626 31.5099 88.4459 31.6432C88.5293 31.7766 88.6759 31.8949 88.8859 31.9982C89.0993 32.0982 89.4009 32.1982 89.7909 32.2982C90.2543 32.4149 90.6276 32.5466 90.9109 32.6932C91.1976 32.8366 91.4076 33.0249 91.5409 33.2582C91.6743 33.4882 91.7409 33.7916 91.7409 34.1682V34.2682C91.7409 34.8582 91.5493 35.3049 91.1659 35.6082C90.7826 35.9116 90.2076 36.0632 89.4409 36.0632ZM98.1595 35.9432H97.1545V29.7282H98.1595V35.9432ZM100.035 30.3932H95.2745V29.5532H100.035V30.3932ZM105.065 29.5532V35.9432H104.06V29.5532H105.065ZM111.707 36.0682C110.89 36.0682 110.279 35.8416 109.872 35.3882C109.469 34.9349 109.267 34.2899 109.267 33.4532V32.0332C109.267 31.1999 109.469 30.5582 109.872 30.1082C110.279 29.6549 110.89 29.4282 111.707 29.4282C111.957 29.4282 112.185 29.4499 112.392 29.4932C112.599 29.5366 112.784 29.5932 112.947 29.6632C113.11 29.7332 113.25 29.8066 113.367 29.8832L113.447 30.8032C113.25 30.6699 113.022 30.5532 112.762 30.4532C112.502 30.3532 112.195 30.3032 111.842 30.3032C111.329 30.3032 110.94 30.4549 110.677 30.7582C110.417 31.0616 110.287 31.4916 110.287 32.0482V33.4182C110.287 33.9716 110.419 34.4016 110.682 34.7082C110.949 35.0149 111.345 35.1682 111.872 35.1682C112.219 35.1682 112.525 35.1199 112.792 35.0232C113.062 34.9232 113.297 34.8016 113.497 34.6582L113.417 35.6032C113.3 35.6799 113.157 35.7549 112.987 35.8282C112.82 35.8982 112.629 35.9549 112.412 35.9982C112.199 36.0449 111.964 36.0682 111.707 36.0682ZM125.232 35.9432H123.682V35.0982H125.197C125.723 35.0982 126.118 34.9549 126.382 34.6682C126.648 34.3816 126.782 33.9716 126.782 33.4382V32.0482C126.782 31.5116 126.648 31.1016 126.382 30.8182C126.118 30.5316 125.723 30.3882 125.197 30.3882H123.677V29.5532H125.232C126.078 29.5532 126.717 29.7682 127.147 30.1982C127.577 30.6249 127.792 31.2399 127.792 32.0432V33.4432C127.792 34.2466 127.577 34.8649 127.147 35.2982C126.717 35.7282 126.078 35.9432 125.232 35.9432ZM123.987 35.9432H122.997V29.5532H123.987V35.9432ZM132.983 29.5532V35.9432H131.978V29.5532H132.983ZM142.13 35.9432H141.09L140.92 34.6482C140.89 34.4116 140.837 34.2099 140.76 34.0432C140.687 33.8732 140.572 33.7416 140.415 33.6482C140.258 33.5549 140.04 33.5082 139.76 33.5082L138.095 33.5032V32.7132L139.865 32.7082C140.275 32.7082 140.568 32.6099 140.745 32.4132C140.922 32.2166 141.01 31.9432 141.01 31.5932V31.4532C141.01 31.1099 140.92 30.8449 140.74 30.6582C140.56 30.4716 140.262 30.3782 139.845 30.3782H138.075V29.5532H139.985C140.695 29.5532 141.212 29.7049 141.535 30.0082C141.862 30.3116 142.025 30.7349 142.025 31.2782V31.4382C142.025 31.8416 141.932 32.1716 141.745 32.4282C141.562 32.6849 141.253 32.8466 140.82 32.9132V33.0432L140.4 32.8982C140.77 32.9249 141.055 33.0049 141.255 33.1382C141.458 33.2716 141.607 33.4549 141.7 33.6882C141.793 33.9216 141.865 34.2049 141.915 34.5382L142.13 35.9432ZM138.395 35.9432H137.405V29.5532H138.39V32.9882L138.395 33.3632V35.9432ZM147.206 35.9432H146.216V29.5532H147.206V35.9432ZM150.316 35.9432H146.511V35.1032H150.316V35.9432ZM150.206 33.1032H146.786V32.2732H150.206V33.1032ZM150.281 30.3882H146.506V29.5532H150.281V30.3882ZM156.66 36.0682C155.843 36.0682 155.232 35.8416 154.825 35.3882C154.422 34.9349 154.22 34.2899 154.22 33.4532V32.0332C154.22 31.1999 154.422 30.5582 154.825 30.1082C155.232 29.6549 155.843 29.4282 156.66 29.4282C156.91 29.4282 157.138 29.4499 157.345 29.4932C157.552 29.5366 157.737 29.5932 157.9 29.6632C158.063 29.7332 158.203 29.8066 158.32 29.8832L158.4 30.8032C158.203 30.6699 157.975 30.5532 157.715 30.4532C157.455 30.3532 157.148 30.3032 156.795 30.3032C156.282 30.3032 155.893 30.4549 155.63 30.7582C155.37 31.0616 155.24 31.4916 155.24 32.0482V33.4182C155.24 33.9716 155.372 34.4016 155.635 34.7082C155.902 35.0149 156.298 35.1682 156.825 35.1682C157.172 35.1682 157.478 35.1199 157.745 35.0232C158.015 34.9232 158.25 34.8016 158.45 34.6582L158.37 35.6032C158.253 35.6799 158.11 35.7549 157.94 35.8282C157.773 35.8982 157.582 35.9549 157.365 35.9982C157.152 36.0449 156.917 36.0682 156.66 36.0682ZM164.984 35.9432H163.979V29.7282H164.984V35.9432ZM166.859 30.3932H162.099V29.5532H166.859V30.3932ZM172.941 36.0732C172.108 36.0732 171.474 35.8466 171.041 35.3932C170.611 34.9399 170.396 34.2916 170.396 33.4482V32.0432C170.396 31.2032 170.611 30.5566 171.041 30.1032C171.474 29.6499 172.108 29.4232 172.941 29.4232C173.774 29.4232 174.406 29.6499 174.836 30.1032C175.269 30.5566 175.486 31.2032 175.486 32.0432V33.4482C175.486 34.2916 175.269 34.9399 174.836 35.3932C174.406 35.8466 173.774 36.0732 172.941 36.0732ZM172.941 35.2382C173.448 35.2382 173.828 35.0866 174.081 34.7832C174.338 34.4766 174.466 34.0449 174.466 33.4882V32.0032C174.466 31.4432 174.338 31.0132 174.081 30.7132C173.828 30.4099 173.448 30.2582 172.941 30.2582C172.434 30.2582 172.053 30.4099 171.796 30.7132C171.543 31.0132 171.416 31.4432 171.416 32.0032V33.4882C171.416 34.0449 171.543 34.4766 171.796 34.7832C172.053 35.0866 172.434 35.2382 172.941 35.2382ZM184.415 35.9432H183.375L183.205 34.6482C183.175 34.4116 183.122 34.2099 183.045 34.0432C182.972 33.8732 182.857 33.7416 182.7 33.6482C182.543 33.5549 182.325 33.5082 182.045 33.5082L180.38 33.5032V32.7132L182.15 32.7082C182.56 32.7082 182.853 32.6099 183.03 32.4132C183.207 32.2166 183.295 31.9432 183.295 31.5932V31.4532C183.295 31.1099 183.205 30.8449 183.025 30.6582C182.845 30.4716 182.547 30.3782 182.13 30.3782H180.36V29.5532H182.27C182.98 29.5532 183.497 29.7049 183.82 30.0082C184.147 30.3116 184.31 30.7349 184.31 31.2782V31.4382C184.31 31.8416 184.217 32.1716 184.03 32.4282C183.847 32.6849 183.538 32.8466 183.105 32.9132V33.0432L182.685 32.8982C183.055 32.9249 183.34 33.0049 183.54 33.1382C183.743 33.2716 183.892 33.4549 183.985 33.6882C184.078 33.9216 184.15 34.2049 184.2 34.5382L184.415 35.9432ZM180.68 35.9432H179.69V29.5532H180.675V32.9882L180.68 33.3632V35.9432ZM190.859 34.0832H189.994L187.794 29.5532H188.854L189.944 31.8782L190.394 32.9332H190.459L190.909 31.8782L191.994 29.5532H193.054L190.859 34.0832ZM190.919 35.9432H189.934V33.1532H190.919V35.9432Z" fill="black"/>
<path d="M31.5958 2.82709H18.4675C11.7171 3.53973 6.66031 6.06811 3.62626 13.1476C0.375476 20.7327 2.71347 26.2636 4.46391 29.3755C6.21435 32.4874 12.1075 38.7112 21.6766 38.7112C24.4968 38.8084 31.304 37.42 36.2636 30.5424C38.6005 27.3019 40.5406 21.7441 39.4728 9.24538H18.4675C15.8418 9.43987 10.3571 11.2876 9.42349 17.1224C8.48992 22.9572 10.9794 26.9443 12.3409 28.2085C13.7024 29.4727 14.7511 30.5424 18.4675 31.4177C20.0261 31.7847 22.025 31.5933 24.3023 30.8342C25.761 30.3479 29.0285 28.4419 30.4288 24.7076C30.8178 23.7352 31.5374 20.9733 31.304 17.7059H26.3444H23.3476" stroke="url(#paint0_linear_24_2)" stroke-width="3.82779"/>
<rect x="34.9781" width="5.05676" height="5.05676" fill="url(#paint1_linear_24_2)"/>
<rect x="34.9781" width="5.05676" height="5.05676" fill="url(#paint2_linear_24_2)"/>
<path d="M60.9806 19.2542C59.8163 19.2542 58.8394 19.019 58.0499 18.5485C57.2684 18.07 56.6783 17.3802 56.2796 16.4791C55.8888 15.57 55.6934 14.4735 55.6934 13.1896V9.73261C55.6934 7.68315 56.2277 6.10817 57.2963 5.00768C58.3729 3.90719 59.9519 3.35695 62.0332 3.35695C62.7509 3.35695 63.4048 3.41277 63.995 3.52441C64.5851 3.63606 65.1114 3.7796 65.5739 3.95504C66.0444 4.13048 66.4471 4.31788 66.7821 4.51725L66.9974 6.65842C66.4392 6.33146 65.7853 6.04438 65.0356 5.79716C64.286 5.54198 63.4288 5.41439 62.4638 5.41439C60.9965 5.41439 59.908 5.78919 59.1983 6.5388C58.4885 7.28043 58.1337 8.36099 58.1337 9.78046V13.1776C58.1337 14.4615 58.4327 15.4544 59.0308 16.1561C59.6289 16.8499 60.538 17.1968 61.7581 17.1968C62.3562 17.1968 62.8706 17.0971 63.3012 16.8978C63.7398 16.6984 64.0986 16.4312 64.3777 16.0963C64.6569 15.7614 64.8602 15.3946 64.9878 14.9958V11.4312L65.3467 12.2685H61.9614V10.2829H67.3323V16.5509L64.9519 16.5389C64.8243 17.0254 64.609 17.4759 64.306 17.8906C64.0109 18.3053 63.5922 18.6362 63.05 18.8834C62.5157 19.1306 61.8259 19.2542 60.9806 19.2542ZM64.9878 18.9432L65.0955 15.7853H67.3323V18.9432H64.9878ZM76.8463 19.2184C74.9802 19.2184 73.5807 18.7758 72.6477 17.8906C71.7226 16.9974 71.2601 15.7135 71.2601 14.0389V12.125C71.2601 10.4742 71.6907 9.19832 72.552 8.29719C73.4212 7.38809 74.6852 6.93354 76.3439 6.93354C77.4683 6.93354 78.4053 7.14088 79.1549 7.55556C79.9045 7.96226 80.4667 8.54042 80.8415 9.29002C81.2164 10.0396 81.4038 10.9288 81.4038 11.9575V12.4001C81.4038 12.6712 81.3918 12.9464 81.3679 13.2255C81.3439 13.5046 81.312 13.7717 81.2722 14.0269H79.119C79.135 13.6122 79.143 13.2215 79.143 12.8547C79.1509 12.4878 79.1549 12.1529 79.1549 11.8499C79.1549 11.2039 79.0513 10.6577 78.8439 10.2111C78.6366 9.76451 78.3256 9.42559 77.9109 9.19433C77.4962 8.95509 76.9739 8.83547 76.3439 8.83547C75.4109 8.83547 74.7171 9.10262 74.2625 9.63692C73.808 10.1632 73.5807 10.9168 73.5807 11.8977V12.9982L73.5927 13.2733V14.314C73.5927 14.7526 73.6565 15.1513 73.7841 15.5102C73.9196 15.869 74.1309 16.1801 74.418 16.4432C74.7131 16.6984 75.0919 16.8978 75.5544 17.0413C76.0169 17.1769 76.5791 17.2447 77.241 17.2447C77.9906 17.2447 78.6924 17.149 79.3463 16.9576C80.0082 16.7662 80.6302 16.511 81.2124 16.192L80.9971 18.1896C80.4707 18.5006 79.8567 18.7518 79.1549 18.9432C78.4611 19.1267 77.6916 19.2184 76.8463 19.2184ZM80.7937 14.0269H72.5041V12.2685H80.7937V14.0269ZM89.6529 19.1825C88.7199 19.1825 87.9703 19.0429 87.4041 18.7638C86.8379 18.4767 86.4272 18.0501 86.172 17.4839C85.9169 16.9097 85.7893 16.196 85.7893 15.3427V8.18953H88.1099V15.0676C88.1099 15.7853 88.2733 16.3116 88.6003 16.6466C88.9273 16.9815 89.4775 17.149 90.251 17.149C90.7136 17.149 91.1561 17.1011 91.5788 17.0054C92.0015 16.9097 92.3922 16.7742 92.7511 16.5987L92.5477 18.5844C92.1649 18.7758 91.7223 18.9233 91.2199 19.027C90.7175 19.1306 90.1952 19.1825 89.6529 19.1825ZM92.4401 9.25414H83.9591V7.38809H92.6434L92.4401 9.25414ZM88.0501 7.59144H85.8132L85.8012 4.3737L88.1458 4.09858L88.0501 7.59144ZM98.5767 18.9432H96.2321V7.24455H98.5767V18.9432ZM97.4044 5.52204C96.9419 5.52204 96.595 5.40641 96.3637 5.17515C96.1404 4.93591 96.0288 4.60895 96.0288 4.19428V4.14643C96.0288 3.73175 96.1404 3.40878 96.3637 3.17752C96.595 2.93828 96.9419 2.81866 97.4044 2.81866C97.8669 2.81866 98.2098 2.93828 98.4331 3.17752C98.6644 3.40878 98.78 3.73175 98.78 4.14643V4.19428C98.78 4.61693 98.6644 4.94389 98.4331 5.17515C98.2098 5.40641 97.8669 5.52204 97.4044 5.52204ZM107.682 19.2184C105.944 19.2184 104.652 18.7598 103.807 17.8427C102.969 16.9177 102.551 15.6139 102.551 13.9312V12.2446C102.551 10.554 102.973 9.25015 103.819 8.33308C104.664 7.416 105.952 6.95746 107.682 6.95746C108.161 6.95746 108.599 7.00132 108.998 7.08904C109.405 7.17676 109.772 7.2924 110.099 7.43594C110.426 7.57151 110.705 7.71505 110.936 7.86656L111.139 9.87616C110.756 9.60502 110.314 9.37774 109.811 9.19433C109.309 9.00294 108.723 8.90725 108.053 8.90725C106.984 8.90725 106.191 9.19832 105.673 9.78046C105.162 10.3546 104.907 11.192 104.907 12.2924V13.8714C104.907 14.948 105.162 15.7773 105.673 16.3595C106.191 16.9416 106.984 17.2327 108.053 17.2327C108.731 17.2327 109.329 17.141 109.847 16.9576C110.366 16.7662 110.832 16.5349 111.247 16.2638L111.044 18.2973C110.677 18.5286 110.206 18.7399 109.632 18.9313C109.066 19.1227 108.416 19.2184 107.682 19.2184ZM119.482 19.2423C117.76 19.2423 116.452 18.7837 115.559 17.8667C114.666 16.9496 114.219 15.6298 114.219 13.9073V12.2446C114.219 10.5301 114.666 9.21825 115.559 8.30915C116.452 7.39208 117.76 6.93354 119.482 6.93354C121.205 6.93354 122.509 7.39208 123.394 8.30915C124.287 9.21825 124.733 10.5301 124.733 12.2446V13.9073C124.733 15.6298 124.287 16.9496 123.394 17.8667C122.509 18.7837 121.205 19.2423 119.482 19.2423ZM119.482 17.3403C120.431 17.3403 121.153 17.0573 121.647 16.4911C122.142 15.9249 122.389 15.1115 122.389 14.0508V12.1011C122.389 11.0484 122.142 10.243 121.647 9.68477C121.153 9.11857 120.431 8.83547 119.482 8.83547C118.533 8.83547 117.812 9.11857 117.317 9.68477C116.823 10.243 116.576 11.0484 116.576 12.1011V14.0508C116.576 15.1115 116.823 15.9249 117.317 16.4911C117.812 17.0573 118.533 17.3403 119.482 17.3403ZM138.774 18.9432H136.43V11.7183C136.43 11.1521 136.35 10.6617 136.19 10.247C136.039 9.83229 135.784 9.50933 135.425 9.27806C135.074 9.0468 134.591 8.93117 133.977 8.93117C133.411 8.93117 132.921 9.03484 132.506 9.24218C132.091 9.44952 131.752 9.72863 131.489 10.0795C131.234 10.4304 131.051 10.8291 130.939 11.2757L130.556 9.64888H131.059C131.194 9.15446 131.418 8.70788 131.729 8.30915C132.04 7.90245 132.454 7.57948 132.973 7.34024C133.491 7.10101 134.133 6.98139 134.898 6.98139C135.816 6.98139 136.557 7.15683 137.123 7.50771C137.69 7.85062 138.104 8.35301 138.367 9.0149C138.639 9.67679 138.774 10.4902 138.774 11.4551V18.9432ZM131.023 18.9432H128.678V7.24455H131.023L130.927 9.98381L131.023 10.1274V18.9432Z" fill="black"/>
<defs>
<linearGradient id="paint0_linear_24_2" x1="6.15463" y1="8.09082" x2="35.4838" y2="34.8916" gradientUnits="userSpaceOnUse">
<stop stop-color="#FFC107"/>
<stop offset="1" stop-color="#6610F2"/>
</linearGradient>
<linearGradient id="paint1_linear_24_2" x1="37.5065" y1="0" x2="37.5065" y2="5.05676" gradientUnits="userSpaceOnUse">
<stop/>
<stop offset="1" stop-color="#666666"/>
</linearGradient>
<linearGradient id="paint2_linear_24_2" x1="35.5343" y1="0.741665" x2="39.6425" y2="4.30839" gradientUnits="userSpaceOnUse">
<stop stop-color="#FFC107"/>
<stop offset="1" stop-color="#6610F2"/>
</linearGradient>
</defs>
</svg>
